# xmcd
#
# Track frame offsets:
#	150
#	18802
#	46574
#	62215
#	88204
#	111911
#	135824
#	160415
#	178763
#
# Disc length: 2581 seconds
#
# Revision: 1
# Processed by: cddbd v1.4PL0 Copyright (c) Steve Scherf et al.
# Submitted via: CDmax 1.8
#
DISCID=6b0a1309
DTITLE=AMIGA Blues Band - Not fade away
DYEAR=1983
DGENRE=Blues
TTITLE0=Walking By Myself
TTITLE1=Rambling On My Mind
TTITLE2=Crossroad Blues
TTITLE3=Help Me
TTITLE4=Dust My Broom
TTITLE5=Maggie's Farm
TTITLE6=Little Red Rooster
TTITLE7=Hoochie Coochie Man
TTITLE8=Not Fade Away
EXTD=
EXTT0=
EXTT1=
EXTT2=
EXTT3=
EXTT4=
EXTT5=
EXTT6=
EXTT7=
EXTT8=
PLAYORDER=
